<?xml version="1.0" encoding="UTF-8"?><svg xmlns="http://www.w3.org/2000/svg" xmlns:xlink="http://www.w3.org/1999/xlink" fill-opacity="1" color-rendering="auto" color-interpolation="auto" text-rendering="auto" stroke="black" stroke-linecap="square" width="825" stroke-miterlimit="10" shape-rendering="auto" stroke-opacity="1" fill="black" stroke-dasharray="none" font-weight="normal" stroke-width="1" height="508" font-family="'Dialog'" font-style="normal" stroke-linejoin="miter" font-size="12px" stroke-dashoffset="0" image-rendering="auto">
  <!--Generated by ySVG 2.5-->
  <defs id="genericDefs"/>
  <g>
    <defs id="defs1">
      <clipPath clipPathUnits="userSpaceOnUse" id="clipPath1">
        <path d="M0 0 L825 0 L825 508 L0 508 L0 0 Z"/>
      </clipPath>
      <clipPath clipPathUnits="userSpaceOnUse" id="clipPath2">
        <path d="M36 18 L861 18 L861 526 L36 526 L36 18 Z"/>
      </clipPath>
      <clipPath clipPathUnits="userSpaceOnUse" id="clipPath3">
        <path d="M433 176 L433 238 L533 238 L533 176 Z"/>
      </clipPath>
      <clipPath clipPathUnits="userSpaceOnUse" id="clipPath4">
        <path d="M576 176 L576 238 L676 238 L676 176 Z"/>
      </clipPath>
      <clipPath clipPathUnits="userSpaceOnUse" id="clipPath5">
        <path d="M718 176 L718 238 L846 238 L846 176 Z"/>
      </clipPath>
      <clipPath clipPathUnits="userSpaceOnUse" id="clipPath6">
        <path d="M576 47 L576 135 L688 135 L688 47 Z"/>
      </clipPath>
      <clipPath clipPathUnits="userSpaceOnUse" id="clipPath7">
        <path d="M0 0 L0 16 L43 16 L43 0 Z"/>
      </clipPath>
      <clipPath clipPathUnits="userSpaceOnUse" id="clipPath8">
        <path d="M540 449 L540 511 L641 511 L641 449 Z"/>
      </clipPath>
      <clipPath clipPathUnits="userSpaceOnUse" id="clipPath9">
        <path d="M649 449 L649 511 L770 511 L770 449 Z"/>
      </clipPath>
      <clipPath clipPathUnits="userSpaceOnUse" id="clipPath10">
        <path d="M778 449 L778 511 L847 511 L847 449 Z"/>
      </clipPath>
      <clipPath clipPathUnits="userSpaceOnUse" id="clipPath11">
        <path d="M429 449 L429 511 L531 511 L531 449 Z"/>
      </clipPath>
      <clipPath clipPathUnits="userSpaceOnUse" id="clipPath12">
        <path d="M590 304 L590 392 L702 392 L702 304 Z"/>
      </clipPath>
      <clipPath clipPathUnits="userSpaceOnUse" id="clipPath13">
        <path d="M0 0 L0 16 L45 16 L45 0 Z"/>
      </clipPath>
      <clipPath clipPathUnits="userSpaceOnUse" id="clipPath14">
        <path d="M109 183 L109 316 L306 316 L306 183 Z"/>
      </clipPath>
      <clipPath clipPathUnits="userSpaceOnUse" id="clipPath15">
        <path d="M41 398 L41 428 L110 428 L110 398 Z"/>
      </clipPath>
      <clipPath clipPathUnits="userSpaceOnUse" id="clipPath16">
        <path d="M122 398 L122 428 L199 428 L199 398 Z"/>
      </clipPath>
      <clipPath clipPathUnits="userSpaceOnUse" id="clipPath17">
        <path d="M211 398 L211 428 L260 428 L260 398 Z"/>
      </clipPath>
      <clipPath clipPathUnits="userSpaceOnUse" id="clipPath18">
        <path d="M272 398 L272 428 L372 428 L372 398 Z"/>
      </clipPath>
    </defs>
    <g fill="white" text-rendering="geometricPrecision" shape-rendering="geometricPrecision" transform="translate(-36,-18)" stroke="white">
      <rect x="36" width="825" height="508" y="18" clip-path="url(#clipPath2)" stroke="none"/>
    </g>
    <g text-rendering="geometricPrecision" stroke-miterlimit="1.45" stroke-dasharray="6,2" shape-rendering="geometricPrecision" transform="matrix(1,0,0,1,-36,-18)" stroke-linecap="butt">
      <path fill="none" d="M484.3259 175.9706 L484.3259 164.12 L600.8768 164.12 L600.8768 150.022" clip-path="url(#clipPath2)"/>
      <path fill="white" d="M600.8768 135.022 L594.8768 151.022 L606.8768 151.022 Z" clip-path="url(#clipPath2)" stroke="none"/>
      <path fill="none" stroke-dasharray="none" d="M600.8768 135.022 L594.8768 151.022 L606.8768 151.022 Z" clip-path="url(#clipPath2)"/>
      <path fill="none" d="M632.2805 175.9893 L632.2805 150.0301" clip-path="url(#clipPath2)"/>
      <path fill="white" d="M632.2805 135.0301 L626.2805 151.0301 L638.2805 151.0301 Z" clip-path="url(#clipPath2)" stroke="none"/>
      <path fill="none" stroke-dasharray="none" d="M632.2805 135.0301 L626.2805 151.0301 L638.2805 151.0301 Z" clip-path="url(#clipPath2)"/>
      <path fill="none" d="M782.3069 175.9706 L782.3069 164.12 L663.1489 164.12 L663.1489 150.0284" clip-path="url(#clipPath2)"/>
      <path fill="white" d="M663.1489 135.0284 L657.1489 151.0284 L669.1489 151.0284 Z" clip-path="url(#clipPath2)" stroke="none"/>
      <path fill="none" stroke-dasharray="none" d="M663.1489 135.0284 L657.1489 151.0284 L669.1489 151.0284 Z" clip-path="url(#clipPath2)"/>
      <path fill="none" d="M306.9459 287.4912 L357.7623 287.4912 L357.7623 117.7569 L568.1504 117.7569" clip-path="url(#clipPath2)"/>
      <path d="M576.1504 117.7569 L564.1504 112.7569 L567.1504 117.7569 L564.1504 122.7569 Z" clip-path="url(#clipPath2)" stroke="none"/>
      <text x="439.3665" y="111.1202" clip-path="url(#clipPath2)" font-family="sans-serif" stroke-dasharray="none" stroke="none" xml:space="preserve">&lt;&lt;call&gt;&gt;</text>
      <path fill="none" d="M624.8858 449.0282 L624.8858 420.3 L625.3893 420.3 L625.3893 407.5023" clip-path="url(#clipPath2)"/>
      <path fill="white" d="M625.3893 392.5023 L619.3893 408.5023 L631.3893 408.5023 Z" clip-path="url(#clipPath2)" stroke="none"/>
      <path fill="none" stroke-dasharray="none" d="M625.3893 392.5023 L619.3893 408.5023 L631.3893 408.5023 Z" clip-path="url(#clipPath2)"/>
      <path fill="none" d="M669.3571 448.9781 L669.3571 407.4929" clip-path="url(#clipPath2)"/>
      <path fill="white" d="M669.3571 392.4929 L663.3571 408.4929 L675.3571 408.4929 Z" clip-path="url(#clipPath2)" stroke="none"/>
      <path fill="none" stroke-dasharray="none" d="M669.3571 392.4929 L663.3571 408.4929 L675.3571 408.4929 Z" clip-path="url(#clipPath2)"/>
      <path fill="none" d="M487.2858 448.9978 L487.2858 425.5 L608.162 425.5 L608.162 407.4753" clip-path="url(#clipPath2)"/>
      <path fill="white" d="M608.162 392.4753 L602.162 408.4753 L614.162 408.4753 Z" clip-path="url(#clipPath2)" stroke="none"/>
      <path fill="none" stroke-dasharray="none" d="M608.162 392.4753 L602.162 408.4753 L614.162 408.4753 Z" clip-path="url(#clipPath2)"/>
      <path fill="none" d="M813.5175 449.0278 L813.5175 422.7 L686.541 422.7 L686.541 407.5112" clip-path="url(#clipPath2)"/>
      <path fill="white" d="M686.541 392.5112 L680.541 408.5112 L692.541 408.5112 Z" clip-path="url(#clipPath2)" stroke="none"/>
      <path fill="none" stroke-dasharray="none" d="M686.541 392.5112 L680.541 408.5112 L692.541 408.5112 Z" clip-path="url(#clipPath2)"/>
      <path fill="none" d="M306.9703 301.5872 L357.7623 301.5872 L357.7623 374.0414 L582.2679 374.0414" clip-path="url(#clipPath2)"/>
      <path d="M590.2679 374.0414 L578.2679 369.0414 L581.2679 374.0414 L578.2679 379.0414 Z" clip-path="url(#clipPath2)" stroke="none"/>
      <text x="446.4236" y="367.4047" clip-path="url(#clipPath2)" font-family="sans-serif" stroke-dasharray="none" stroke="none" xml:space="preserve">&lt;&lt;call&gt;&gt;</text>
      <path fill="none" stroke-dasharray="none" d="M75.8661 398.1092 L75.8661 371.6713 L130.6721 371.6713 L130.6721 331.2957" clip-path="url(#clipPath2)"/>
      <path fill="white" stroke-dasharray="none" d="M130.6721 316.2957 L124.6721 332.2957 L136.6721 332.2957 Z" clip-path="url(#clipPath2)" stroke="none"/>
      <path fill="none" stroke-dasharray="none" d="M130.6721 316.2957 L124.6721 332.2957 L136.6721 332.2957 Z" clip-path="url(#clipPath2)"/>
      <path fill="none" stroke-dasharray="none" d="M161.1376 398.125 L161.1376 378.1299 L161.1376 378.1299 L161.1376 331.3279" clip-path="url(#clipPath2)"/>
      <path fill="white" stroke-dasharray="none" d="M161.1376 316.3279 L155.1376 332.3279 L167.1376 332.3279 Z" clip-path="url(#clipPath2)" stroke="none"/>
      <path fill="none" stroke-dasharray="none" d="M161.1376 316.3279 L155.1376 332.3279 L167.1376 332.3279 Z" clip-path="url(#clipPath2)"/>
      <path fill="none" stroke-dasharray="none" d="M236.3004 398.0903 L236.3004 331.3409" clip-path="url(#clipPath2)"/>
      <path fill="white" stroke-dasharray="none" d="M236.3004 316.3409 L230.3004 332.3409 L242.3004 332.3409 Z" clip-path="url(#clipPath2)" stroke="none"/>
      <path fill="none" stroke-dasharray="none" d="M236.3004 316.3409 L230.3004 332.3409 L242.3004 332.3409 Z" clip-path="url(#clipPath2)"/>
      <path fill="none" stroke-dasharray="none" d="M323.019 398.1092 L323.019 371.6713 L280.9976 371.6713 L280.9976 331.2957" clip-path="url(#clipPath2)"/>
      <path fill="white" stroke-dasharray="none" d="M280.9976 316.2957 L274.9976 332.2957 L286.9976 332.2957 Z" clip-path="url(#clipPath2)" stroke="none"/>
      <path fill="none" stroke-dasharray="none" d="M280.9976 316.2957 L274.9976 332.2957 L286.9976 332.2957 Z" clip-path="url(#clipPath2)"/>
      <path fill="none" stroke-dasharray="none" d="M576.1334 71.6243 L375.1774 71.6243 L375.1774 207 L313.9521 207" clip-path="url(#clipPath2)"/>
      <path fill="white" stroke-dasharray="none" d="M306.9521 207 L313.9521 202 L320.9521 207 L313.9521 212 Z" clip-path="url(#clipPath2)" stroke="none"/>
      <path fill="none" stroke-dasharray="none" d="M306.9521 207 L313.9521 202 L320.9521 207 L313.9521 212 Z" clip-path="url(#clipPath2)"/>
      <text x="557.334" y="87.6888" clip-path="url(#clipPath2)" font-family="sans-serif" stroke-dasharray="none" stroke="none" xml:space="preserve">1</text>
      <text x="493.959" y="64.9876" clip-path="url(#clipPath2)" font-family="sans-serif" stroke-dasharray="none" stroke="none" xml:space="preserve">bellVerhalten</text>
      <path fill="none" stroke-dasharray="none" d="M590.2375 339.2735 L375.1774 339.2735 L375.1774 219.0516 L313.9648 219.0516" clip-path="url(#clipPath2)"/>
      <path fill="white" stroke-dasharray="none" d="M306.9648 219.0516 L313.9648 214.0516 L320.9648 219.0516 L313.9648 224.0516 Z" clip-path="url(#clipPath2)" stroke="none"/>
      <path fill="none" stroke-dasharray="none" d="M306.9648 219.0516 L313.9648 214.0516 L320.9648 219.0516 L313.9648 224.0516 Z" clip-path="url(#clipPath2)"/>
      <text x="571.4482" y="355.3379" clip-path="url(#clipPath2)" font-family="sans-serif" stroke-dasharray="none" stroke="none" xml:space="preserve">1</text>
      <text x="507.4053" y="332.6367" clip-path="url(#clipPath2)" font-family="sans-serif" stroke-dasharray="none" stroke="none" xml:space="preserve">laufVerhalten</text>
      <text x="427.1836" y="301.0645" clip-path="url(#clipPath2)" font-family="sans-serif" stroke-dasharray="none" stroke="none" xml:space="preserve">Gekapseltes Laufverhalten</text>
      <rect x="421.1836" y="283" clip-path="url(#clipPath2)" fill="none" width="434.7578" rx="4" ry="4" height="238"/>
      <text x="427.1836" y="41.0645" clip-path="url(#clipPath2)" font-family="sans-serif" stroke-dasharray="none" stroke="none" xml:space="preserve">Gekapseltes Bellverhalten</text>
      <rect x="421.1836" y="23" clip-path="url(#clipPath2)" fill="none" width="434.7578" rx="4" ry="4" height="225"/>
    </g>
    <g fill="rgb(255,204,0)" text-rendering="geometricPrecision" shape-rendering="geometricPrecision" transform="matrix(1,0,0,1,-36,-18)" stroke="rgb(255,204,0)">
      <rect x="434" width="98" height="60" y="177" clip-path="url(#clipPath2)" stroke="none"/>
      <rect x="433" y="176" clip-path="url(#clipPath2)" fill="yellow" width="1" height="62" stroke="none"/>
      <rect x="434" y="176" clip-path="url(#clipPath2)" fill="yellow" width="98" height="1" stroke="none"/>
      <rect x="434" y="237" clip-path="url(#clipPath2)" fill="rgb(178,142,0)" width="99" height="1" stroke="none"/>
      <rect x="532" y="176" clip-path="url(#clipPath2)" fill="rgb(178,142,0)" width="1" height="61" stroke="none"/>
    </g>
    <g font-size="13px" stroke-linecap="butt" transform="matrix(1,0,0,1,-36,-18)" text-rendering="geometricPrecision" font-family="sans-serif" shape-rendering="geometricPrecision" font-weight="bold" stroke-miterlimit="1.45">
      <text x="451.0991" xml:space="preserve" y="194.0698" clip-path="url(#clipPath3)" stroke="none">LautBellen</text>
    </g>
    <g text-rendering="geometricPrecision" shape-rendering="geometricPrecision" transform="matrix(1,0,0,1,-36,-18)">
      <line y2="201" fill="none" x1="434" clip-path="url(#clipPath3)" x2="533" y1="201"/>
      <line y2="211" fill="none" x1="434" clip-path="url(#clipPath3)" x2="533" y1="211"/>
      <text stroke-linecap="butt" x="438.9778" y="228.9907" clip-path="url(#clipPath3)" font-family="sans-serif" stroke="none" stroke-miterlimit="1.45" xml:space="preserve">bellen()</text>
      <rect x="577" y="177" clip-path="url(#clipPath2)" fill="rgb(255,204,0)" width="98" height="60" stroke="none"/>
      <rect x="576" y="176" clip-path="url(#clipPath2)" fill="yellow" width="1" height="62" stroke="none"/>
      <rect x="577" y="176" clip-path="url(#clipPath2)" fill="yellow" width="98" height="1" stroke="none"/>
      <rect x="577" y="237" clip-path="url(#clipPath2)" fill="rgb(178,142,0)" width="99" height="1" stroke="none"/>
      <rect x="675" y="176" clip-path="url(#clipPath2)" fill="rgb(178,142,0)" width="1" height="61" stroke="none"/>
    </g>
    <g font-size="13px" stroke-linecap="butt" transform="matrix(1,0,0,1,-36,-18)" text-rendering="geometricPrecision" font-family="sans-serif" shape-rendering="geometricPrecision" font-weight="bold" stroke-miterlimit="1.45">
      <text x="590.3533" xml:space="preserve" y="194.0698" clip-path="url(#clipPath4)" stroke="none">LeiseBellen</text>
    </g>
    <g text-rendering="geometricPrecision" shape-rendering="geometricPrecision" transform="matrix(1,0,0,1,-36,-18)">
      <line y2="201" fill="none" x1="577" clip-path="url(#clipPath4)" x2="675" y1="201"/>
      <line y2="211" fill="none" x1="577" clip-path="url(#clipPath4)" x2="675" y1="211"/>
      <text stroke-linecap="butt" x="581.1328" y="228.9907" clip-path="url(#clipPath4)" font-family="sans-serif" stroke="none" stroke-miterlimit="1.45" xml:space="preserve">bellen()</text>
      <rect x="719" y="177" clip-path="url(#clipPath2)" fill="rgb(255,204,0)" width="126" height="60" stroke="none"/>
      <rect x="718" y="176" clip-path="url(#clipPath2)" fill="yellow" width="1" height="62" stroke="none"/>
      <rect x="719" y="176" clip-path="url(#clipPath2)" fill="yellow" width="126" height="1" stroke="none"/>
      <rect x="719" y="237" clip-path="url(#clipPath2)" fill="rgb(178,142,0)" width="127" height="1" stroke="none"/>
      <rect x="845" y="176" clip-path="url(#clipPath2)" fill="rgb(178,142,0)" width="1" height="61" stroke="none"/>
    </g>
    <g font-size="13px" stroke-linecap="butt" transform="matrix(1,0,0,1,-36,-18)" text-rendering="geometricPrecision" font-family="sans-serif" shape-rendering="geometricPrecision" font-weight="bold" stroke-miterlimit="1.45">
      <text x="723.7878" xml:space="preserve" y="194.0698" clip-path="url(#clipPath5)" stroke="none">ElektronischBellen</text>
    </g>
    <g text-rendering="geometricPrecision" shape-rendering="geometricPrecision" transform="matrix(1,0,0,1,-36,-18)">
      <line y2="201" fill="none" x1="719" clip-path="url(#clipPath5)" x2="845" y1="201"/>
      <line y2="211" fill="none" x1="719" clip-path="url(#clipPath5)" x2="845" y1="211"/>
      <text stroke-linecap="butt" x="723.2878" y="228.9907" clip-path="url(#clipPath5)" font-family="sans-serif" stroke="none" stroke-miterlimit="1.45" xml:space="preserve">bellen()</text>
      <rect x="577" y="48" clip-path="url(#clipPath2)" fill="rgb(255,204,0)" width="110" height="86" stroke="none"/>
      <rect x="576" y="47" clip-path="url(#clipPath2)" fill="yellow" width="1" height="88" stroke="none"/>
      <rect x="577" y="47" clip-path="url(#clipPath2)" fill="yellow" width="110" height="1" stroke="none"/>
      <rect x="577" y="134" clip-path="url(#clipPath2)" fill="rgb(178,142,0)" width="111" height="1" stroke="none"/>
      <rect x="687" y="47" clip-path="url(#clipPath2)" fill="rgb(178,142,0)" width="1" height="87" stroke="none"/>
      <text stroke-linecap="butt" x="595.2522" y="64.0645" clip-path="url(#clipPath6)" font-family="sans-serif" stroke="none" stroke-miterlimit="1.45" xml:space="preserve">&lt;&lt;interface&gt;&gt;</text>
    </g>
    <g stroke-linecap="butt" font-size="13px" transform="matrix(1,0,0,1,-36,-18)" text-rendering="geometricPrecision" font-family="sans-serif" shape-rendering="geometricPrecision" font-style="italic" font-weight="bold" stroke-miterlimit="1.45">
      <text x="590.7383" xml:space="preserve" y="88.771" clip-path="url(#clipPath6)" stroke="none">BellVerhalten</text>
    </g>
    <g text-rendering="geometricPrecision" shape-rendering="geometricPrecision" transform="matrix(1,0,0,1,-36,-18)">
      <line y2="96" fill="none" x1="577" clip-path="url(#clipPath6)" x2="687" y1="96"/>
      <line y2="106" fill="none" x1="577" clip-path="url(#clipPath6)" x2="687" y1="106"/>
    </g>
    <g stroke-linecap="butt" transform="matrix(1,0,0,1,-36,-18) translate(581,111)" text-rendering="geometricPrecision" font-family="sans-serif" shape-rendering="geometricPrecision" font-style="italic" stroke-miterlimit="1.45">
      <text x="0" xml:space="preserve" y="13" clip-path="url(#clipPath7)" stroke="none">bellen()</text>
    </g>
    <g fill="rgb(255,204,0)" text-rendering="geometricPrecision" shape-rendering="geometricPrecision" transform="matrix(1,0,0,1,-36,-18)" stroke="rgb(255,204,0)">
      <rect x="541" width="99" height="60" y="450" clip-path="url(#clipPath2)" stroke="none"/>
      <rect x="540" y="449" clip-path="url(#clipPath2)" fill="yellow" width="1" height="62" stroke="none"/>
      <rect x="541" y="449" clip-path="url(#clipPath2)" fill="yellow" width="99" height="1" stroke="none"/>
      <rect x="541" y="510" clip-path="url(#clipPath2)" fill="rgb(178,142,0)" width="100" height="1" stroke="none"/>
      <rect x="640" y="449" clip-path="url(#clipPath2)" fill="rgb(178,142,0)" width="1" height="61" stroke="none"/>
    </g>
    <g font-size="13px" stroke-linecap="butt" transform="matrix(1,0,0,1,-36,-18)" text-rendering="geometricPrecision" font-family="sans-serif" shape-rendering="geometricPrecision" font-weight="bold" stroke-miterlimit="1.45">
      <text x="547.0311" xml:space="preserve" y="467.0698" clip-path="url(#clipPath8)" stroke="none">NormalLaufen</text>
    </g>
    <g text-rendering="geometricPrecision" shape-rendering="geometricPrecision" transform="matrix(1,0,0,1,-36,-18)">
      <line y2="474" fill="none" x1="541" clip-path="url(#clipPath8)" x2="640" y1="474"/>
      <line y2="484" fill="none" x1="541" clip-path="url(#clipPath8)" x2="640" y1="484"/>
      <text stroke-linecap="butt" x="545.0311" y="501.9907" clip-path="url(#clipPath8)" font-family="sans-serif" stroke="none" stroke-miterlimit="1.45" xml:space="preserve">laufen()</text>
      <rect x="650" y="450" clip-path="url(#clipPath2)" fill="rgb(255,204,0)" width="119" height="60" stroke="none"/>
      <rect x="649" y="449" clip-path="url(#clipPath2)" fill="yellow" width="1" height="62" stroke="none"/>
      <rect x="650" y="449" clip-path="url(#clipPath2)" fill="yellow" width="119" height="1" stroke="none"/>
      <rect x="650" y="510" clip-path="url(#clipPath2)" fill="rgb(178,142,0)" width="120" height="1" stroke="none"/>
      <rect x="769" y="449" clip-path="url(#clipPath2)" fill="rgb(178,142,0)" width="1" height="61" stroke="none"/>
    </g>
    <g font-size="13px" stroke-linecap="butt" transform="matrix(1,0,0,1,-36,-18)" text-rendering="geometricPrecision" font-family="sans-serif" shape-rendering="geometricPrecision" font-weight="bold" stroke-miterlimit="1.45">
      <text x="656.2659" xml:space="preserve" y="467.0698" clip-path="url(#clipPath9)" stroke="none">KannNichtLaufen</text>
    </g>
    <g text-rendering="geometricPrecision" shape-rendering="geometricPrecision" transform="matrix(1,0,0,1,-36,-18)">
      <line y2="474" fill="none" x1="650" clip-path="url(#clipPath9)" x2="769" y1="474"/>
      <line y2="484" fill="none" x1="650" clip-path="url(#clipPath9)" x2="769" y1="484"/>
      <text stroke-linecap="butt" x="654.2659" y="501.9907" clip-path="url(#clipPath9)" font-family="sans-serif" stroke="none" stroke-miterlimit="1.45" xml:space="preserve">laufen()</text>
      <rect x="779" y="450" clip-path="url(#clipPath2)" fill="rgb(255,204,0)" width="67" height="60" stroke="none"/>
      <rect x="778" y="449" clip-path="url(#clipPath2)" fill="yellow" width="1" height="62" stroke="none"/>
      <rect x="779" y="449" clip-path="url(#clipPath2)" fill="yellow" width="67" height="1" stroke="none"/>
      <rect x="779" y="510" clip-path="url(#clipPath2)" fill="rgb(178,142,0)" width="68" height="1" stroke="none"/>
      <rect x="846" y="449" clip-path="url(#clipPath2)" fill="rgb(178,142,0)" width="1" height="61" stroke="none"/>
    </g>
    <g font-size="13px" stroke-linecap="butt" transform="matrix(1,0,0,1,-36,-18)" text-rendering="geometricPrecision" font-family="sans-serif" shape-rendering="geometricPrecision" font-weight="bold" stroke-miterlimit="1.45">
      <text x="785.7115" xml:space="preserve" y="467.0698" clip-path="url(#clipPath10)" stroke="none">Humpeln</text>
    </g>
    <g text-rendering="geometricPrecision" shape-rendering="geometricPrecision" transform="matrix(1,0,0,1,-36,-18)">
      <line y2="474" fill="none" x1="779" clip-path="url(#clipPath10)" x2="847" y1="474"/>
      <line y2="484" fill="none" x1="779" clip-path="url(#clipPath10)" x2="847" y1="484"/>
      <text stroke-linecap="butt" x="783.7115" y="501.9907" clip-path="url(#clipPath10)" font-family="sans-serif" stroke="none" stroke-miterlimit="1.45" xml:space="preserve">laufen()</text>
      <rect x="430" y="450" clip-path="url(#clipPath2)" fill="rgb(255,204,0)" width="100" height="60" stroke="none"/>
      <rect x="429" y="449" clip-path="url(#clipPath2)" fill="yellow" width="1" height="62" stroke="none"/>
      <rect x="430" y="449" clip-path="url(#clipPath2)" fill="yellow" width="100" height="1" stroke="none"/>
      <rect x="430" y="510" clip-path="url(#clipPath2)" fill="rgb(178,142,0)" width="101" height="1" stroke="none"/>
      <rect x="530" y="449" clip-path="url(#clipPath2)" fill="rgb(178,142,0)" width="1" height="61" stroke="none"/>
    </g>
    <g font-size="13px" stroke-linecap="butt" transform="matrix(1,0,0,1,-36,-18)" text-rendering="geometricPrecision" font-family="sans-serif" shape-rendering="geometricPrecision" font-weight="bold" stroke-miterlimit="1.45">
      <text x="436.9019" xml:space="preserve" y="467.0698" clip-path="url(#clipPath11)" stroke="none">SchnellLaufen</text>
    </g>
    <g text-rendering="geometricPrecision" shape-rendering="geometricPrecision" transform="matrix(1,0,0,1,-36,-18)">
      <line y2="474" fill="none" x1="430" clip-path="url(#clipPath11)" x2="531" y1="474"/>
      <line y2="484" fill="none" x1="430" clip-path="url(#clipPath11)" x2="531" y1="484"/>
      <text stroke-linecap="butt" x="434.9019" y="501.9907" clip-path="url(#clipPath11)" font-family="sans-serif" stroke="none" stroke-miterlimit="1.45" xml:space="preserve">laufen()</text>
      <rect x="591" y="305" clip-path="url(#clipPath2)" fill="rgb(255,204,0)" width="110" height="86" stroke="none"/>
      <rect x="590" y="304" clip-path="url(#clipPath2)" fill="yellow" width="1" height="88" stroke="none"/>
      <rect x="591" y="304" clip-path="url(#clipPath2)" fill="yellow" width="110" height="1" stroke="none"/>
      <rect x="591" y="391" clip-path="url(#clipPath2)" fill="rgb(178,142,0)" width="111" height="1" stroke="none"/>
      <rect x="701" y="304" clip-path="url(#clipPath2)" fill="rgb(178,142,0)" width="1" height="87" stroke="none"/>
      <text stroke-linecap="butt" x="609.3665" y="321.5645" clip-path="url(#clipPath12)" font-family="sans-serif" stroke="none" stroke-miterlimit="1.45" xml:space="preserve">&lt;&lt;interface&gt;&gt;</text>
    </g>
    <g stroke-linecap="butt" font-size="13px" transform="matrix(1,0,0,1,-36,-18)" text-rendering="geometricPrecision" font-family="sans-serif" shape-rendering="geometricPrecision" font-style="italic" font-weight="bold" stroke-miterlimit="1.45">
      <text x="603.053" xml:space="preserve" y="346.271" clip-path="url(#clipPath12)" stroke="none">LaufVerhalten</text>
    </g>
    <g text-rendering="geometricPrecision" shape-rendering="geometricPrecision" transform="matrix(1,0,0,1,-36,-18)">
      <line y2="354" fill="none" x1="591" clip-path="url(#clipPath12)" x2="701" y1="354"/>
      <line y2="364" fill="none" x1="591" clip-path="url(#clipPath12)" x2="701" y1="364"/>
    </g>
    <g stroke-linecap="butt" transform="matrix(1,0,0,1,-36,-18) translate(595,369)" text-rendering="geometricPrecision" font-family="sans-serif" shape-rendering="geometricPrecision" font-style="italic" stroke-miterlimit="1.45">
      <text x="0" xml:space="preserve" y="13" clip-path="url(#clipPath13)" stroke="none">laufen() </text>
    </g>
    <g fill="rgb(255,204,0)" text-rendering="geometricPrecision" shape-rendering="geometricPrecision" transform="matrix(1,0,0,1,-36,-18)" stroke="rgb(255,204,0)">
      <rect x="110" width="195" height="131" y="184" clip-path="url(#clipPath2)" stroke="none"/>
      <rect x="109" y="183" clip-path="url(#clipPath2)" fill="yellow" width="1" height="133" stroke="none"/>
      <rect x="110" y="183" clip-path="url(#clipPath2)" fill="yellow" width="195" height="1" stroke="none"/>
      <rect x="110" y="315" clip-path="url(#clipPath2)" fill="rgb(178,142,0)" width="196" height="1" stroke="none"/>
      <rect x="305" y="183" clip-path="url(#clipPath2)" fill="rgb(178,142,0)" width="1" height="132" stroke="none"/>
    </g>
    <g text-rendering="geometricPrecision" stroke-miterlimit="1.45" shape-rendering="geometricPrecision" font-family="sans-serif" transform="matrix(1,0,0,1,-36,-18)" stroke-linecap="butt">
      <text x="172.9826" xml:space="preserve" y="200.0645" clip-path="url(#clipPath14)" stroke="none">&lt;&lt;abstract&gt;&gt;</text>
      <text x="191.7355" font-size="13px" y="224.771" clip-path="url(#clipPath14)" font-style="italic" stroke="none" font-weight="bold" xml:space="preserve">Hund</text>
      <line stroke-linecap="square" clip-path="url(#clipPath14)" fill="none" x1="110" x2="305" y1="232" y2="232" stroke-miterlimit="10"/>
      <line stroke-linecap="square" clip-path="url(#clipPath14)" fill="none" x1="110" x2="305" y1="242" y2="242" stroke-miterlimit="10"/>
      <text x="114.7355" xml:space="preserve" y="259.6919" clip-path="url(#clipPath14)" stroke="none">setBellVerhalten(BellVerhalten)</text>
      <text x="114.7355" xml:space="preserve" y="274.3931" clip-path="url(#clipPath14)" stroke="none">setLaufVerhalten(LaufVerhalten)</text>
      <text x="114.7355" xml:space="preserve" y="289.0942" clip-path="url(#clipPath14)" stroke="none">bellen()</text>
      <text x="114.7355" xml:space="preserve" y="303.7954" clip-path="url(#clipPath14)" stroke="none">laufen()</text>
    </g>
    <g fill="rgb(255,204,0)" text-rendering="geometricPrecision" shape-rendering="geometricPrecision" transform="matrix(1,0,0,1,-36,-18)" stroke="rgb(255,204,0)">
      <rect x="42" width="67" height="28" y="399" clip-path="url(#clipPath2)" stroke="none"/>
      <rect x="41" y="398" clip-path="url(#clipPath2)" fill="yellow" width="1" height="30" stroke="none"/>
      <rect x="42" y="398" clip-path="url(#clipPath2)" fill="yellow" width="67" height="1" stroke="none"/>
      <rect x="42" y="427" clip-path="url(#clipPath2)" fill="rgb(178,142,0)" width="68" height="1" stroke="none"/>
      <rect x="109" y="398" clip-path="url(#clipPath2)" fill="rgb(178,142,0)" width="1" height="29" stroke="none"/>
    </g>
    <g font-size="13px" stroke-linecap="butt" transform="matrix(1,0,0,1,-36,-18)" text-rendering="geometricPrecision" font-family="sans-serif" shape-rendering="geometricPrecision" font-weight="bold" stroke-miterlimit="1.45">
      <text x="56.3566" xml:space="preserve" y="416.1997" clip-path="url(#clipPath15)" stroke="none">Husky</text>
    </g>
    <g fill="rgb(255,204,0)" text-rendering="geometricPrecision" shape-rendering="geometricPrecision" transform="matrix(1,0,0,1,-36,-18)" stroke="rgb(255,204,0)">
      <rect x="123" width="75" height="28" y="399" clip-path="url(#clipPath2)" stroke="none"/>
      <rect x="122" y="398" clip-path="url(#clipPath2)" fill="yellow" width="1" height="30" stroke="none"/>
      <rect x="123" y="398" clip-path="url(#clipPath2)" fill="yellow" width="75" height="1" stroke="none"/>
      <rect x="123" y="427" clip-path="url(#clipPath2)" fill="rgb(178,142,0)" width="76" height="1" stroke="none"/>
      <rect x="198" y="398" clip-path="url(#clipPath2)" fill="rgb(178,142,0)" width="1" height="29" stroke="none"/>
    </g>
    <g font-size="13px" stroke-linecap="butt" transform="matrix(1,0,0,1,-36,-18)" text-rendering="geometricPrecision" font-family="sans-serif" shape-rendering="geometricPrecision" font-weight="bold" stroke-miterlimit="1.45">
      <text x="129.3644" xml:space="preserve" y="416.1997" clip-path="url(#clipPath16)" stroke="none">Bulldogge</text>
    </g>
    <g fill="rgb(255,204,0)" text-rendering="geometricPrecision" shape-rendering="geometricPrecision" transform="matrix(1,0,0,1,-36,-18)" stroke="rgb(255,204,0)">
      <rect x="212" width="47" height="28" y="399" clip-path="url(#clipPath2)" stroke="none"/>
      <rect x="211" y="398" clip-path="url(#clipPath2)" fill="yellow" width="1" height="30" stroke="none"/>
      <rect x="212" y="398" clip-path="url(#clipPath2)" fill="yellow" width="47" height="1" stroke="none"/>
      <rect x="212" y="427" clip-path="url(#clipPath2)" fill="rgb(178,142,0)" width="48" height="1" stroke="none"/>
      <rect x="259" y="398" clip-path="url(#clipPath2)" fill="rgb(178,142,0)" width="1" height="29" stroke="none"/>
    </g>
    <g font-size="13px" stroke-linecap="butt" transform="matrix(1,0,0,1,-36,-18)" text-rendering="geometricPrecision" font-family="sans-serif" shape-rendering="geometricPrecision" font-weight="bold" stroke-miterlimit="1.45">
      <text x="218.6031" xml:space="preserve" y="416.1997" clip-path="url(#clipPath17)" stroke="none">Pudel</text>
    </g>
    <g fill="rgb(255,204,0)" text-rendering="geometricPrecision" shape-rendering="geometricPrecision" transform="matrix(1,0,0,1,-36,-18)" stroke="rgb(255,204,0)">
      <rect x="273" width="98" height="28" y="399" clip-path="url(#clipPath2)" stroke="none"/>
      <rect x="272" y="398" clip-path="url(#clipPath2)" fill="yellow" width="1" height="30" stroke="none"/>
      <rect x="273" y="398" clip-path="url(#clipPath2)" fill="yellow" width="98" height="1" stroke="none"/>
      <rect x="273" y="427" clip-path="url(#clipPath2)" fill="rgb(178,142,0)" width="99" height="1" stroke="none"/>
      <rect x="371" y="398" clip-path="url(#clipPath2)" fill="rgb(178,142,0)" width="1" height="29" stroke="none"/>
    </g>
    <g font-size="13px" stroke-linecap="butt" transform="matrix(1,0,0,1,-36,-18)" text-rendering="geometricPrecision" font-family="sans-serif" shape-rendering="geometricPrecision" font-weight="bold" stroke-miterlimit="1.45">
      <text x="279.6899" xml:space="preserve" y="416.1997" clip-path="url(#clipPath18)" stroke="none">HundAttrappe</text>
    </g>
  </g>
</svg>
